# xmcd
#
# Track frame offsets: 
#        150
#        16092
#        42612
#        68122
#        84155
#        109080
#        127905
#
# Disc length: 2035 seconds
#
# Revision: 0
# Processed by: cddbd v1.5.2PL0 Copyright (c) Steve Scherf et al.
# Submitted via: ExactAudioCopy v1.0b1
#
DISCID=4e07f107
DTITLE=KEF - Hottie Boombalottie
DYEAR=2000
DGENRE=Hip-Hop
TTITLE0=Hottie Boombalottie [Radio Edit]
TTITLE1=Hottie Boombalottie [Extended Mix]
TTITLE2=Hottie Boombalottie [KS's Disco Party]
TTITLE3=Hottie Boombalottie [KC's Disco Radio Edit]
TTITLE4=Hottie Boombalottie [Hippop Radio Mix]
TTITLE5=Hottie Boombalottie [Big Beat Acid Mix]
TTITLE6=Movie Star [Underground Mix]
EXTD=
EXTT0=
EXTT1=
EXTT2=
EXTT3=
EXTT4=
EXTT5=
EXTT6=
PLAYORDER=
